# xmcd
# Track frame offsets:
# 150
# 11338
# 23350
# 35886
# 46343
# 55714
# 67340
# 77964
# 90730
# 102473
# 113782
# 127161
# 137526
# 148635
# 162187
# 171898
# 181868
# 193860
# 203092
# 214079
#
# Disc length: 3006 seconds
# Revision: 0
# Processed by: cddbd v1.5.2PL0 Copyright (c) Steve Scherf et al.
# Submitted via: VisiTrax 2.11.3.279 - For more info visit www.synapsa.com
#
DISCID=1e0bbc14
DTITLE=Various (1930s-1950s) Rock n Roll and Blues and Jazz Artists - Roots Of Ro
DTITLE=ck and Roll: Rough And Rowdy: CD4 of 10: *ReMastered Tracks
DYEAR=2014
DGENRE=Rock n Roll
TTITLE0=Calvin Boze and His All Stars - Waiting And Drinking*
TTITLE1=Ann Cole - Got My Mojo Working*
TTITLE2=Slim Harpo - I Got Love If You Want It*
TTITLE3=Nappy Brown - Open The Door*
TTITLE4=Big Maybelle - Tell Me Who*
TTITLE5=Zeb Turner - Chew Tobacco Rag*
TTITLE6=Piano Red - Wild Fire*
TTITLE7=Hank Ballard and The Midnighters - Annie's Aunt Fannie*
TTITLE8=Frankie Lee Sims - Hey Little Girl*
TTITLE9=Roy Hamilton - Don't Let Go*
TTITLE10=Jimmy Liggins and His Drops Of Joy - Saturday Night Boogie Woogie Man*
TTITLE11=Erline Harris - Jump And Shout*
TTITLE12=James Waynes - Please Baby Please*
TTITLE13=Ruth Brown - Mama, He Treats Your Daughter Mean*
TTITLE14=Oscar Wills - Flatfoot Sam*
TTITLE15=Chuck Higgins and His Mellotones - Motor Head Baby*
TTITLE16=Big Joe Turner - Honey Hush*
TTITLE17=Lester Robertson - Take It Home To Grandma*
TTITLE18=Oscar McLollie and His Honeyjumpers - All That Oil In Texas*
TTITLE19=Rosco Gordon - New Orleans Wimmen*
EXTD=Compilation and ReMastering: Documents-The Intense Media: 2014
EXTT0=
EXTT1=
EXTT2=
EXTT3=
EXTT4=
EXTT5=
EXTT6=
EXTT7=
EXTT8=
EXTT9=
EXTT10=
EXTT11=
EXTT12=
EXTT13=
EXTT14=
EXTT15=
EXTT16=
EXTT17=
EXTT18=
EXTT19=
PLAYORDER=
